<?xml version="1.0" standalone="no"?><!DOCTYPE svg PUBLIC "-//W3C//DTD SVG 1.1//EN" "http://www.w3.org/Graphics/SVG/1.1/DTD/svg11.dtd"><svg t="1527487929485" class="icon" style="" viewBox="0 0 1024 1024" version="1.1" xmlns="http://www.w3.org/2000/svg" p-id="991" xmlns:xlink="http://www.w3.org/1999/xlink" width="200" height="200"><defs><style type="text/css"></style></defs><path d="M602.642 795.922 602.642 688.317 111.615 688.317l0 107.605L0.023 795.922l0-188.31 714.219 0 0 188.31L602.642 795.922zM155.285 371.264c65.588-28.603 345.593-28.613 403.691 0 92.015 45.305 155.265 209.443 155.265 209.443L0.023 580.707C0.023 580.707 75.973 405.849 155.285 371.264zM618.872 346.083c3.91-6.595 6.09-13.62 6.09-20.938 0-15.325-9.38-29.405-24.99-40.715-0.355-0.995-0.57-2.02-0.985-3 2.295-3.233 3.66-6.598 3.66-10.088 0-22.288-49.965-40.355-111.6-40.355-61.633 0-111.595 18.067-111.595 40.355 0 3.49 1.355 6.855 3.657 10.088-2.302 5.382-3.657 10.995-3.657 16.812 0 5.317 1.235 10.442 3.193 15.4-7.708-2.985-16.292-4.83-25.513-4.83-9.22 0-17.805 1.845-25.513 4.83 1.955-4.958 3.193-10.083 3.193-15.4 0-5.818-1.355-11.43-3.657-16.812 2.302-3.233 3.657-6.598 3.657-10.088 0-22.288-49.963-40.355-111.595-40.355-61.633 0-111.6 18.067-111.6 40.355 0 3.49 1.36 6.855 3.662 10.088-0.422 0.98-0.627 2.005-0.985 3-15.613 11.31-24.995 25.39-24.995 40.715 0 7.317 2.185 14.343 6.095 20.938-17.848 13.115-28.413 29.065-28.413 46.315L22.34 392.398 22.34 121.46c0-13.795 9.268-24.978 20.703-24.978l628.174 0c11.435 0 20.705 11.182 20.705 24.978l0 270.938-44.64 0C647.282 375.149 636.717 359.198 618.872 346.083z" p-id="992"></path><path d="M991.73888 670.08c0 65.62304-53.20192 118.82496-118.82496 118.82496-65.61792 0-118.81984-53.20192-118.81984-118.82496 0-65.61792 53.20192-118.81984 118.81984-118.81984C938.54208 551.26016 991.73888 604.46208 991.73888 670.08zM872.91392 567.86432c-56.448 0-102.21056 45.76256-102.21056 102.21568 0 56.45312 45.76256 102.21056 102.21056 102.21056 56.45312 0 102.21568-45.75744 102.21568-102.21056C975.1296 613.632 929.37216 567.86432 872.91392 567.86432z" p-id="993"></path><path d="M871.562 604.592c-18.79 0-34.24 14.265-36.105 32.55l72.2 0C905.787 618.857 890.327 604.592 871.562 604.592zM871.322 611.172c12.54 0 23.215 7.985 27.23 19.135l-54.455 0C848.107 619.157 858.782 611.172 871.322 611.172zM932.317 676.637l-16.335 0.02 0-29.615 10.51-10.155c1.965-1.96 1.965-5.145 0-7.12-1.96-1.95-5.14-1.95-7.11 0l-14.645 14.155-67.305 0-13.65-13.195c-1.96-1.96-5.145-1.96-7.105 0-1.97 1.97-1.97 5.16 0 7.12l12.4 11.98 0 26.95-15.735 0.025c-2.775 0.04-4.98 2.34-4.935 5.11 0.06 2.785 2.345 4.99 5.12 4.935l15.55-0.02 0 8.01c0 6.435 1.695 12.47 4.655 17.705l-13.96 13.485c-1.96 1.975-1.96 5.155 0 7.115 1.96 1.96 5.145 1.96 7.115 0l13.02-12.585c6.49 6.35 15.375 10.265 25.17 10.265l14.91 0c9.075 0 17.365-3.36 23.695-8.905l12.6 12.18c1.965 1.965 5.15 1.965 7.115 0 1.96-1.955 1.96-5.14 0-7.11l-13.135-12.685c3.62-5.615 5.72-12.3 5.72-19.465l0-8.125 16.51-0.025c2.785-0.05 4.99-2.34 4.94-5.11C937.378 678.797 935.087 676.587 932.317 676.637zM908.917 698.072c-0.335 14.605-14.01 22.985-18.455 26.115l-13.04 0-4.505-10.95-4.5 10.95-13.045 0c-19.56-11.21-19.865-26.115-19.865-26.115l0-47.475 73.41 0L908.917 698.072z" p-id="994"></path></svg>