<?xml version="1.0" standalone="no"?><!DOCTYPE svg PUBLIC "-//W3C//DTD SVG 1.1//EN" "http://www.w3.org/Graphics/SVG/1.1/DTD/svg11.dtd"><svg t="1527747682515" class="icon" style="" viewBox="0 0 1024 1024" version="1.1" xmlns="http://www.w3.org/2000/svg" p-id="4776" xmlns:xlink="http://www.w3.org/1999/xlink" width="200" height="200"><defs><style type="text/css"></style></defs><path d="M928.441 332.237c-22.848-54.031-55.55-102.558-97.197-144.231-41.662-41.689-90.184-74.425-144.215-97.298-55.975-23.695-115.422-35.709-176.69-35.709-61.187 0-120.575 11.995-176.515 35.65-54.031 22.848-102.558 55.55-144.231 97.198-41.689 41.663-74.425 90.184-97.298 144.215-23.695 55.974-35.71 115.421-35.71 176.69 0 61.269 12.014 120.717 35.709 176.69 22.873 54.031 55.608 102.553 97.298 144.215 41.673 41.647 90.2 74.35 144.231 97.197 55.94 23.656 115.329 35.65 176.515 35.65 250.2 0 453.753-203.553 453.753-453.753 0.001-61.185-11.993-120.573-35.65-176.514zM510.339 910.505c-54.19 0-106.765-10.612-156.262-31.544-47.836-20.229-90.81-49.191-127.726-86.085-36.929-36.905-65.92-79.871-86.17-127.705-20.965-49.525-31.595-102.152-31.595-156.419s10.63-106.894 31.595-156.419c20.25-47.833 49.241-90.8 86.17-127.705 36.916-36.893 79.89-65.856 127.726-86.085 49.498-20.931 102.072-31.544 156.262-31.544 54.267 0 106.894 10.63 156.419 31.595 47.834 20.25 90.8 49.241 127.705 86.17 36.894 36.917 65.856 79.89 86.085 127.727 20.932 49.497 31.544 102.071 31.544 156.262 0 221.526-180.226 401.752-401.753 401.752z" p-id="4777"></path><path d="M332.717 459.344a48.683 48.683 0 0 0-7.413-0.186 48.32 48.32 0 0 0-9.571 1.456 47.56 47.56 0 0 0-2.289 0.65 47.815 47.815 0 0 0-3.567 1.281c-1.015 0.406-2.02 0.834-3 1.306a48.164 48.164 0 0 0-4.099 2.226 48.046 48.046 0 0 0-3.301 2.211 48.805 48.805 0 0 0-3.884 3.133c-0.651 0.584-1.291 1.181-1.909 1.8s-1.215 1.258-1.8 1.909a48.37 48.37 0 0 0-9.902 17.094 47.838 47.838 0 0 0-1.794 7.331 48.52 48.52 0 0 0-0.631 7.769c0 26.636 21.593 48.228 48.228 48.228 14.111 0 26.806-6.062 35.625-15.723 0.094-0.103 0.184-0.209 0.277-0.312a48.496 48.496 0 0 0 3.133-3.884 48.135 48.135 0 0 0 6.768-13.209c0.331-1.003 0.641-2.016 0.906-3.047a48.158 48.158 0 0 0 1.519-12.053c0.001-24.972-18.977-45.511-43.296-47.98zM545.59 476.032c-0.169-0.198-0.333-0.401-0.505-0.596a48.19 48.19 0 0 0-12.061-9.88 48.228 48.228 0 0 0-72.342 41.767c0 2.497 0.19 4.95 0.556 7.345 0.244 1.597 0.566 3.167 0.963 4.708 5.352 20.803 24.236 36.175 46.71 36.175 26.636 0 48.228-21.593 48.228-48.228 0-9.023-2.541-17.675-7.085-25.119a48.304 48.304 0 0 0-4.464-6.172zM716.642 467.331a48.036 48.036 0 0 0-14.912-6.718 48.158 48.158 0 0 0-12.053-1.519c-26.636 0-48.228 21.593-48.228 48.228a48.206 48.206 0 0 0 14.051 34.029 48.2 48.2 0 0 0 10.063 7.738 48.178 48.178 0 0 0 4.604 2.312 48.082 48.082 0 0 0 4.109 1.625 48.228 48.228 0 0 0 63.629-45.704c0-16.647-8.435-31.324-21.263-39.991z" p-id="4778"></path></svg>