<?xml version="1.0" standalone="no"?><!DOCTYPE svg PUBLIC "-//W3C//DTD SVG 1.1//EN" "http://www.w3.org/Graphics/SVG/1.1/DTD/svg11.dtd"><svg t="1527487916011" class="icon" style="" viewBox="0 0 1024 1024" version="1.1" xmlns="http://www.w3.org/2000/svg" p-id="744" xmlns:xlink="http://www.w3.org/1999/xlink" width="200" height="200"><defs><style type="text/css"></style></defs><path d="M772.266667 853.333333H938.666667v42.666667H85.333333v-42.666667h166.4l-16.896-170.666666H170.666667V341.333333a414.293333 414.293333 0 0 1 149.333333-28.629333A414.293333 414.293333 0 0 1 469.333333 341.333333v341.333334H405.461333l-17.152 170.666666h247.466667l-16.938667-170.666666H554.666667V341.333333a414.293333 414.293333 0 0 1 149.333333-28.629333A414.293333 414.293333 0 0 1 853.333333 341.333333v341.333334h-63.872l-17.152 170.666666zM320 277.333333a85.333333 85.333333 0 1 1 0-170.666666 85.333333 85.333333 0 0 1 0 170.666666z m384 0a85.333333 85.333333 0 1 1 0-170.666666 85.333333 85.333333 0 0 1 0 170.666666zM213.333333 640h59.221334l21.162666 213.333333h52.650667l21.461333-213.333333H426.666667V371.712a362.538667 362.538667 0 0 0-106.666667-16.341333c-35.413333 0-70.954667 5.418667-106.666667 16.341333V640z m384 0h59.221334l21.162666 213.333333h52.650667l21.461333-213.333333H810.666667V371.712a362.538667 362.538667 0 0 0-106.666667-16.341333c-35.413333 0-70.954667 5.418667-106.666667 16.341333V640zM320 234.666667a42.666667 42.666667 0 1 0 0-85.333334 42.666667 42.666667 0 0 0 0 85.333334z m384 0a42.666667 42.666667 0 1 0 0-85.333334 42.666667 42.666667 0 0 0 0 85.333334z" p-id="745"></path></svg>