<?xml version="1.0" standalone="no"?><!DOCTYPE svg PUBLIC "-//W3C//DTD SVG 1.1//EN" "http://www.w3.org/Graphics/SVG/1.1/DTD/svg11.dtd"><svg t="1527747622583" class="icon" style="" viewBox="0 0 1024 1024" version="1.1" xmlns="http://www.w3.org/2000/svg" p-id="2559" xmlns:xlink="http://www.w3.org/1999/xlink" width="200" height="200"><defs><style type="text/css"></style></defs><path d="M912.099421 99.175767c-13.81361-14.733563-31.646767-22.520923-51.570539-22.520923-34.896788 0-74.518181 23.201421-117.759007 68.955488L603.819219 290.99349l-415.257655-84.33578-93.02058 99.085716 373.687888 144.810107L323.18568 620.388593l-173.673481-35.716456-52.537564 56.340169 185.29824 132.052548L388.090922 951.746396l53.987588-57.45762-22.784936-173.090197 154.527422-152.781662 132.548852 387.467729 94.439906-100.584859-71.294766-430.448636L870.170472 278.042527c33.073256-35.267225 53.442166-68.917626 60.542888-100.014878C937.732218 147.286508 931.10324 119.263268 912.099421 99.175767zM896.472512 170.208567c-5.610788 24.576745-23.543206 53.532217-51.859112 83.742263L691.992397 413.246859l71.330582 430.667623-42.61047 45.38363L588.934207 504.083703 382.196679 708.48707l22.88829 173.882236-10.588149 11.267625-85.790922-144.862295L149.985989 635.662461l11.764951-12.616342 174.594457 35.905768 191.922101-223.186152L156.793022 291.813159l43.969421-46.836725 415.057087 84.294848 152.442948-159.499667c35.334763-37.398772 68.103074-57.993832 92.266403-57.993832 10.255575 0 18.742876 3.736091 25.948999 11.42112C897.575636 134.930085 900.920824 150.727886 896.472512 170.208567z" p-id="2560"></path></svg>