<?xml version="1.0" standalone="no"?><!DOCTYPE svg PUBLIC "-//W3C//DTD SVG 1.1//EN" "http://www.w3.org/Graphics/SVG/1.1/DTD/svg11.dtd"><svg t="1529917414574" class="icon" style="" viewBox="0 0 1024 1024" version="1.1" xmlns="http://www.w3.org/2000/svg" p-id="777" xmlns:xlink="http://www.w3.org/1999/xlink" width="200" height="200"><defs><style type="text/css"></style></defs><path d="M993.997221 187.620084C988.723405 132.961642 963.676257 83.493525 923.475586 48.218792 882.857461 12.651843 831.816941-4.171491 779.607553 0.879684a42.315764 42.315764 0 0 0-14.610836 4.174524 20.747387 20.747387 0 0 0-12.523574-4.174524h-131.664505a20.872623 20.872623 0 0 0-20.761302 18.7297 88.819968 88.819968 0 0 1-80.164788 79.441203c-2.783016 0.264387-5.566033 0.403537-8.502115 0.403537a88.861713 88.861713 0 0 1-88.666902-79.84474A20.872623 20.872623 0 0 0 401.952229 0.879684H244.336095C192.140623-4.171491 141.030527 12.651843 100.468063 48.218792 60.267391 83.493525 35.234159 132.961642 29.960343 187.620084a20.942198 20.942198 0 0 0 0 3.617921l10.603292 135.83903a45.377082 45.377082 0 0 0 9.392681 30.265303 43.902084 43.902084 0 0 0 10.728528 9.921454l-0.417453 39.588408C58.444516 431.078358 75.782708 452.424093 99.299196 454.706167l105.504152 10.171925c-4.091034 51.889341-8.849992 112.712164-13.511545 173.354091-7.041031 91.686475-12.523574 164.810231-16.12758 217.339665-2.184668 31.253274-3.757072 55.493347-4.675468 72.066209-0.500943 9.170039-0.82099 15.974514-0.946225 20.872623 0 2.783016-0.08349 4.925939 0 6.540089 0.445283 15.779703 11.744329 20.329935 15.209184 21.359651l0.681839 0.194811c1.308018 0.333962 32.352566 8.349049 66.792394 15.056119a20.872623 20.872623 0 0 0 7.987257-40.979917c-18.548804-3.617921-36.387939-7.708955-48.549721-10.617207 3.47877-73.040265 28.539833-395.508375 46.114582-613.989077a20.872623 20.872623 0 1 0-41.606095-3.33962c0 0.333962-0.667924 8.265559-1.767216 22.055405l-130.662619-12.384423a1.308018 1.308018 0 0 1-0.751415-0.542688 3.951883 3.951883 0 0 1-0.695754-2.783016 21.109179 21.109179 0 0 0 0-3.631837l-10.589377-135.518983c4.605892-43.331565 24.56012-82.41903 56.300421-110.249194 31.448085-27.579692 70.813852-40.785105 110.944949-37.29242 0.542688 0.08349 1.085376 0.166981 1.641979 0.208726a2.685611 2.685611 0 0 1 1.057547 1.572405 20.872623 20.872623 0 0 0 40.465058-1.474999h17.978286l-6.317447 17.936541-0.236557 0.709669a79.802995 79.802995 0 0 0 28.929456 88.110299l8.349049 6.136551a37.835108 37.835108 0 0 1 13.274988 17.783475l3.631836 10.116264a80.276108 80.276108 0 0 0 73.429888 52.779906l13.400224 0.278302a37.876853 37.876853 0 0 1 20.42734 6.456598l11.271217 7.583719a79.455118 79.455118 0 0 0 89.056524 0l11.285132-7.583719a37.835108 37.835108 0 0 1 20.42734-6.456598l13.400224-0.278302a80.234363 80.234363 0 0 0 73.415972-52.779906l3.631837-10.116264a37.960344 37.960344 0 0 1 13.288903-17.783475l8.349049-6.136551a79.802995 79.802995 0 0 0 28.999031-87.929403l-5.566033-18.827106h19.328049a20.872623 20.872623 0 0 0 40.465058 1.474999c0.278302-0.974056 0.890565-1.628065 1.294103-1.66981 40.632039-3.910138 80.526579 9.28136 112.350372 37.181099s51.694529 66.917629 56.300421 110.249194l-10.589377 135.518983a21.109179 21.109179 0 0 0 0 3.631837 3.812732 3.812732 0 0 1-0.695754 2.783016 1.238442 1.238442 0 0 1-0.737499 0.542688l-130.078187 12.328763c-0.695754-8.752587-1.391508-16.906825-1.934196-24.393139a20.872623 20.872623 0 1 0-41.62001 3.325705c26.438656 331.596403 43.595952 559.831578 46.323308 617.300866-39.560578 11.410367-156.878634 41.286048-300.677091 41.286048-38.043834 0-96.487178-6.275702-168.998671-18.159182a20.872623 20.872623 0 1 0-6.748815 41.202558c75.781536 12.412253 134.90672 18.70187 175.747486 18.70187 184.040874 0 322.509855-45.91977 328.312443-47.826137 4.049289-1.391508 13.915082-6.206127 14.42994-20.483v-5.482543c-0.08349-3.868393-0.306132-9.30919-0.695754-16.628523-0.695754-13.288903-1.920281-32.825678-3.631836-58.095467-2.977828-43.832508-7.528059-105.963349-13.49763-184.667053-5.733014-75.60064-11.980886-155.848918-17.505173-225.92527l104.919718-10.18584c23.544319-2.282073 40.868596-23.655639 39.059635-47.853967l-0.417452-39.588408a43.957744 43.957744 0 0 0 10.742443-9.921454 45.293592 45.293592 0 0 0 9.378765-30.265303l10.617208-135.83903a20.942198 20.942198 0 0 0 0.013915-3.617921zM101.887401 409.843943c0-0.598349 0.08349-1.196697 0.097406-1.781131l0.333962-31.628981 104.363115 11.674753a22.389367 22.389367 0 0 0 2.351649 0.125236h0.459197l-2.783016 34.899026-103.402974-9.991029c-0.500943-0.041745-1.61415-1.252357-1.419339-3.297874zM674.367788 115.73477l-8.349049 6.122636a79.566439 79.566439 0 0 0-27.830164 37.334165l-3.631836 10.10235a38.238645 38.238645 0 0 1-34.996431 25.158468l-13.400224 0.278301a79.705589 79.705589 0 0 0-42.858453 13.55329l-11.271216 7.58372a37.876853 37.876853 0 0 1-42.441 0l-11.271216-7.58372a79.705589 79.705589 0 0 0-42.858453-13.55329l-13.400224-0.278301a38.238645 38.238645 0 0 1-34.996431-25.158468l-3.631836-10.10235a79.566439 79.566439 0 0 0-27.830164-37.334165l-8.349049-6.122636a38.043834 38.043834 0 0 1-13.915082-41.745246l11.132065-31.420255h40.172842c0.389622 1.544574 0.807075 3.089148 1.266272 4.605892a130.634789 130.634789 0 0 0 37.668127 60.029664A130.467808 130.467808 0 0 0 493.235166 139.933098a130.634789 130.634789 0 0 0 36.290534 0 130.467808 130.467808 0 0 0 69.784136-32.672613 130.80177 130.80177 0 0 0 37.668127-60.029663c0.445283-1.516744 0.87665-3.061318 1.266273-4.605892h40.785105l9.016973 30.752331c0 0.111321 0.069575 0.236556 0.111321 0.347877a38.043834 38.043834 0 0 1-13.789847 42.009632z m246.296951 297.407047l-103.402974 9.977114-2.783016-34.899026h0.473112a22.389367 22.389367 0 0 0 2.351649-0.125236l104.363115-11.674753 0.333962 31.628981a15.445741 15.445741 0 0 0 0.097406 1.78113c0.166981 2.059432-0.960141 3.270044-1.461084 3.31179z" fill="#707070" p-id="778"></path><path d="M509.933265 644.647036a20.872623 20.872623 0 0 0 14.763902-6.136552l113.8532-114.103672a83.643558 83.643558 0 0 0 0-117.972065 82.683417 82.683417 0 0 0-58.916457-24.448799 82.655587 82.655587 0 0 0-58.916457 24.448799l-10.895509 10.909425-11.563433-11.577348a83.198275 83.198275 0 0 0-117.832914 0 83.657473 83.657473 0 0 0 0 117.985979l114.715936 114.799427a20.872623 20.872623 0 0 0 14.791732 6.094806z m-99.952034-209.421984a41.466944 41.466944 0 0 1 58.735561 0l26.34125 26.438656a20.872623 20.872623 0 0 0 29.555634 0l25.659411-25.728987a41.466944 41.466944 0 0 1 58.735561 0 41.814821 41.814821 0 0 1 0 58.999948L509.849774 594.177033l-99.938118-99.993779a41.856567 41.856567 0 0 1 0-58.958202z" fill="#707070" p-id="779"></path></svg>