<?xml version="1.0" standalone="no"?><!DOCTYPE svg PUBLIC "-//W3C//DTD SVG 1.1//EN" "http://www.w3.org/Graphics/SVG/1.1/DTD/svg11.dtd"><svg t="1529917993234" class="icon" style="" viewBox="0 0 1029 1024" version="1.1" xmlns="http://www.w3.org/2000/svg" p-id="838" xmlns:xlink="http://www.w3.org/1999/xlink" width="200.9765625" height="200"><defs><style type="text/css"></style></defs><path d="M199.903089 458.801791c1.042115 3.576488 2.724503 6.844659 4.872452 9.728459-2.956769 4.749124-4.671017 10.348178-4.671017 16.342907l0 363.578817c0 17.085954 13.90514 30.985955 30.994177 30.985955l574.529966 0c17.084926 0 30.996232-13.900001 30.996232-30.985955l0-363.578817c0-17.097259-13.911306-31.005482-30.996232-31.005482L326.350451 453.867676l449.396038-132.717522c16.347018-4.88684 25.714746-22.154701 20.877237-38.501719l-41.98674-142.182883c-4.703904-15.92565-22.385939-25.697274-38.513024-20.973843L178.90458 278.155215c-7.958714 2.344244-14.523831 7.642175-18.487773 14.936977-3.95983 7.285553-4.842647 15.675913-2.48607 23.594546L199.903089 458.801791zM792.39052 498.102054l0 337.102526L244.336845 835.20458l0-337.102526L792.39052 498.102054zM711.205262 167.066198l4.748097-1.401819 34.509002 116.830925-51.076981 15.08497L711.205262 167.066198zM603.877725 198.766423l81.971469-24.211182-11.819883 130.512021-81.975579 24.210154L603.877725 198.766423zM496.220287 230.562227l82.302396-24.307788-11.827077 130.512021-82.285953 24.301622L496.220287 230.562227zM388.045902 262.511161l82.819343-24.460919-11.811661 130.504827-82.826537 24.460919L388.045902 262.511161zM280.518986 294.270995l82.170847-24.269762-11.818855 130.504827-82.162626 24.263596L280.518986 294.270995zM255.163944 301.75901l-11.810633 130.499688-4.756318 1.403874-34.499752-116.821675L255.163944 301.75901z" fill="#707070" p-id="839"></path><path d="M312.95198 593.479188l410.806962 0c6.786078 0 12.285443-5.50142 12.285443-12.287498 0-6.786078-5.500392-12.287498-12.285443-12.287498L312.95198 568.904191c-6.787106 0-12.287498 5.502448-12.287498 12.287498C300.664481 587.978795 306.164874 593.479188 312.95198 593.479188z" fill="#707070" p-id="840"></path><path d="M312.95198 678.930538l410.806962 0c6.786078 0 12.285443-5.500392 12.285443-12.286471s-5.500392-12.287498-12.285443-12.287498L312.95198 654.356569c-6.787106 0-12.287498 5.50142-12.287498 12.287498S306.164874 678.930538 312.95198 678.930538z" fill="#707070" p-id="841"></path><path d="M312.95198 764.411693l410.806962 0c6.786078 0 12.285443-5.502448 12.285443-12.288526s-5.500392-12.286471-12.285443-12.286471L312.95198 739.836696c-6.787106 0-12.287498 5.500392-12.287498 12.286471S306.164874 764.411693 312.95198 764.411693z" fill="#707070" p-id="842"></path></svg>