<?xml version="1.0" standalone="no"?><!DOCTYPE svg PUBLIC "-//W3C//DTD SVG 1.1//EN" "http://www.w3.org/Graphics/SVG/1.1/DTD/svg11.dtd"><svg t="1527496491834" class="icon" style="" viewBox="0 0 1024 1024" version="1.1" xmlns="http://www.w3.org/2000/svg" p-id="10998" xmlns:xlink="http://www.w3.org/1999/xlink" width="200" height="200"><defs><style type="text/css"></style></defs><path d="M337.05292560546815 472.83274433720567C382.7480567233208 564.2230071593998 459.7769928406002 638.6407928600601 551.1672556627943 686.9470743945319l71.8066352840415-71.8066352840415c9.139026458166084-9.139026458166084 22.19477795477163-13.0557520830944 32.63937962124714-6.5278760415472 35.250530037866035 13.0557520830944 74.41778570066035 19.583627538152747 116.19619119358474 19.583627538152747 19.583627538152747 0 32.63937962124714 13.0557520830944 32.63937962124714 32.63937962124714l0 109.6683151520376c0 19.583627538152747-13.0557520830944 32.63937962124714-32.63937962124714 32.63937962124714C466.3048688821474 803.1432655881165 220.8567344118834 557.6951311178527 220.8567344118834 253.49611403313077c0-19.583627538152747 13.0557520830944-32.63937962124714 32.63937962124714-32.63937962124714l113.58504077696587 0c19.583627538152747 0 32.63937962124714 13.0557520830944 32.63937962124714 32.63937962124714 0 39.16725566279435 6.5278760415472 78.33451073909985 19.583627538152747 116.19619119358474 2.61115041661888 9.139026458166084 0 22.19477795477163-6.5278760415472 32.63937962124714L337.05292560546815 472.83274433720567z" fill="#03A9F4" p-id="10999"></path></svg>