<?xml version="1.0" standalone="no"?><!DOCTYPE svg PUBLIC "-//W3C//DTD SVG 1.1//EN" "http://www.w3.org/Graphics/SVG/1.1/DTD/svg11.dtd"><svg t="1529917823599" class="icon" style="" viewBox="0 0 1024 1024" version="1.1" xmlns="http://www.w3.org/2000/svg" p-id="806" xmlns:xlink="http://www.w3.org/1999/xlink" width="200" height="200"><defs><style type="text/css"></style></defs><path d="M292.3 572.3l148.9-148.9L75.4 57.5c-81 81-81 214.3 0 295.3L292.3 572.3zM647.6 475.6c78.4 36.6 193.4 10.5 274.4-73.2 99.3-99.3 120.2-243 41.8-318.8-75.8-75.8-219.5-57.5-318.8 41.8-83.6 83.6-109.7 196-73.2 274.4C456.9 517.4 62.3 912 62.3 912l73.2 73.2 360.6-360.6 360.6 360.6 73.2-73.2L569.2 554 647.6 475.6z" fill="#707070" p-id="807"></path></svg>