<?xml version="1.0" standalone="no"?><!DOCTYPE svg PUBLIC "-//W3C//DTD SVG 1.1//EN" "http://www.w3.org/Graphics/SVG/1.1/DTD/svg11.dtd"><svg t="1527747660050" class="icon" style="" viewBox="0 0 1024 1024" version="1.1" xmlns="http://www.w3.org/2000/svg" p-id="3967" xmlns:xlink="http://www.w3.org/1999/xlink" width="200" height="200"><defs><style type="text/css"></style></defs><path d="M334.506667 392.533333l354.986667 0c10.24 0 17.066667-6.826667 17.066667-17.066667 0-10.24-6.826667-17.066667-17.066667-17.066667L334.506667 358.4c-10.24 0-17.066667 6.826667-17.066667 17.066667C317.44 384 324.266667 392.533333 334.506667 392.533333z" p-id="3968"></path><path d="M689.493333 529.066667 334.506667 529.066667c-10.24 0-17.066667 6.826667-17.066667 17.066667 0 10.24 6.826667 17.066667 17.066667 17.066667l354.986667 0c10.24 0 17.066667-6.826667 17.066667-17.066667C706.56 535.893333 698.026667 529.066667 689.493333 529.066667z" p-id="3969"></path><path d="M307.2 204.8l17.066667 0c10.24 0 17.066667-6.826667 17.066667-17.066667L341.333333 153.6c0-10.24-6.826667-17.066667-17.066667-17.066667l-17.066667 0c-10.24 0-17.066667 6.826667-17.066667 17.066667l0 34.133333C290.133333 196.266667 296.96 204.8 307.2 204.8z" p-id="3970"></path><path d="M699.733333 204.8l17.066667 0c10.24 0 17.066667-6.826667 17.066667-17.066667L733.866667 153.6c0-10.24-6.826667-17.066667-17.066667-17.066667l-17.066667 0c-10.24 0-17.066667 6.826667-17.066667 17.066667l0 34.133333C682.666667 196.266667 689.493333 204.8 699.733333 204.8z" p-id="3971"></path><path d="M512 650.24c-51.2 0-93.866667 42.666667-93.866667 93.866667l0 42.666667c0 10.24 6.826667 17.066667 17.066667 17.066667s17.066667-6.826667 17.066667-17.066667l0-42.666667c0-32.426667 27.306667-59.733333 59.733333-59.733333 32.426667 0 59.733333 27.306667 59.733333 59.733333l0 42.666667c0 10.24 6.826667 17.066667 17.066667 17.066667s17.066667-6.826667 17.066667-17.066667l0-42.666667C605.866667 691.2 563.2 650.24 512 650.24z" p-id="3972"></path><path d="M931.84 810.666667 819.2 617.813333l0-37.546667 10.24 0c44.373333 0 68.266667-52.906667 37.546667-85.333333L819.2 440.32l0-30.72L836.266667 409.6c42.666667 0 66.56-49.493333 39.253333-83.626667l-83.626667-102.4L230.4 223.573333l-83.626667 104.106667C119.466667 358.4 143.36 409.6 186.026667 409.6l17.066667 0 0 32.426667L157.013333 494.933333c-29.013333 32.426667-6.826667 85.333333 37.546667 85.333333l8.533333 0 0 37.546667L92.16 810.666667C71.68 844.8 97.28 887.466667 136.533333 887.466667l750.933333 0C926.72 887.466667 950.613333 844.8 931.84 810.666667zM136.533333 836.266667l110.933333-192.853333 6.826667-11.946667 0-13.653333L254.293333 580.266667l0-51.2-51.2 0-8.533333 0 47.786667-52.906667 13.653333-15.36 0-20.48L256 409.6l0-51.2-51.2 0-17.066667 0 68.266667-85.333333L768 273.066667l68.266667 83.626667L819.2 356.693333l-51.2 0 0 51.2 0 30.72 0 20.48 13.653333 15.36 49.493333 54.613333L819.2 529.066667l-51.2 0 0 51.2 0 37.546667L768 631.466667l6.826667 11.946667L887.466667 836.266667 136.533333 836.266667z" p-id="3973"></path></svg>